<svg width="23" height="25" viewBox="0 0 23 25" fill="none" xmlns="http://www.w3.org/2000/svg">
<g id="Group 4">
<g id="&#240;&#159;&#166;&#134; icon &#34;alert alarm bell 1&#34;">
<path id="Vector" d="M11.3635 24.1737C13.8739 24.1737 15.909 22.2136 15.909 19.7956C15.909 17.3776 13.8739 15.4175 11.3635 15.4175C8.85316 15.4175 6.81812 17.3776 6.81812 19.7956C6.81812 22.2136 8.85316 24.1737 11.3635 24.1737Z" fill="#1575E5"/>
<path id="Vector_2" d="M19.8587 8.82372C19.4905 4.50803 15.797 1.18848 11.3636 1.18848C6.93006 1.18848 3.23665 4.50803 2.86847 8.82372L2.57256 12.2922C2.45859 13.6282 2.03213 14.9206 1.32606 16.0701L0.388106 17.5971C-0.405514 18.8892 0.0337502 20.2178 1.56138 20.4267C3.33823 20.6697 6.33569 20.8901 11.3636 20.8901C16.3914 20.8901 19.3889 20.6697 21.1658 20.4267C22.6934 20.2178 23.1326 18.8892 22.339 17.5971L21.401 16.0701C20.695 14.9206 20.2685 13.6282 20.1546 12.2922L19.8587 8.82372Z" fill="#A6CFFF"/>
</g>
<g id="&#240;&#159;&#166;&#134; icon &#34;Circle&#34;">
<path id="Vector_3" d="M18.3635 0C15.8776 0 13.8635 2.01411 13.8635 4.5C13.8635 6.98589 15.8776 9 18.3635 9C20.8494 9 22.8635 6.98589 22.8635 4.5C22.8635 2.01411 20.8494 0 18.3635 0Z" fill="#F0C24D"/>
</g>
</g>
</svg>
