<svg width="23" height="23" viewBox="0 0 23 23" fill="none" xmlns="http://www.w3.org/2000/svg">
<g id="&#240;&#159;&#166;&#134; icon &#34;alert alarm bell 1&#34;">
<path id="Vector" d="M11.3635 22.9853C13.8739 22.9853 15.909 21.0251 15.909 18.6071C15.909 16.1891 13.8739 14.229 11.3635 14.229C8.85316 14.229 6.81812 16.1891 6.81812 18.6071C6.81812 21.0251 8.85316 22.9853 11.3635 22.9853Z" fill="#1575E5"/>
<path id="Vector_2" d="M19.8587 7.63524C19.4905 3.31955 15.797 0 11.3636 0C6.93006 0 3.23665 3.31955 2.86847 7.63524L2.57256 11.1038C2.45859 12.4397 2.03213 13.7322 1.32606 14.8817L0.388106 16.4086C-0.405514 17.7007 0.0337502 19.0293 1.56138 19.2382C3.33823 19.4812 6.33569 19.7016 11.3636 19.7016C16.3914 19.7016 19.3889 19.4812 21.1658 19.2382C22.6934 19.0293 23.1326 17.7007 22.339 16.4086L21.401 14.8817C20.695 13.7322 20.2685 12.4397 20.1546 11.1038L19.8587 7.63524Z" fill="#A6CFFF"/>
</g>
</svg>
