<svg width="42" height="24" viewBox="0 0 42 24" fill="none" xmlns="http://www.w3.org/2000/svg">
<g id="Group 20">
<g id="User">
<path id="Vector" d="M12 15C15.3137 15 18 12.3137 18 9C18 5.68629 15.3137 3 12 3C8.68629 3 6 5.68629 6 9C6 12.3137 8.68629 15 12 15Z" stroke="#B8B8B8" stroke-width="2" stroke-linecap="round" stroke-linejoin="round"/>
<path id="Vector_2" d="M2.90625 20.25C3.82775 18.6536 5.15328 17.3279 6.74958 16.4062C8.34588 15.4844 10.1567 14.9992 12 14.9992C13.8433 14.9992 15.6541 15.4844 17.2504 16.4062C18.8467 17.3279 20.1722 18.6536 21.0938 20.25" stroke="#B8B8B8" stroke-width="2" stroke-linecap="round" stroke-linejoin="round"/>
</g>
<g id="User_2">
<path id="Vector_3" d="M30 15C33.3137 15 36 12.3137 36 9C36 5.68629 33.3137 3 30 3C26.6863 3 24 5.68629 24 9C24 12.3137 26.6863 15 30 15Z" stroke="#B8B8B8" stroke-width="2" stroke-linecap="round" stroke-linejoin="round"/>
<path id="Vector_4" d="M20.9062 20.25C21.8278 18.6536 23.1533 17.3279 24.7496 16.4062C26.3459 15.4844 28.1567 14.9992 30 14.9992C31.8433 14.9992 33.6541 15.4844 35.2504 16.4062C36.8467 17.3279 38.1722 18.6536 39.0938 20.25" stroke="#B8B8B8" stroke-width="2" stroke-linecap="round" stroke-linejoin="round"/>
</g>
</g>
</svg>
