<svg width="23" height="22" viewBox="0 0 23 22" fill="none" xmlns="http://www.w3.org/2000/svg">
<g id="&#240;&#159;&#166;&#134; icon &#34;thumbs up&#34;">
<path id="Vector" d="M17.1362 21H1.74633C1.33414 21 1 20.6891 1 20.3056V8.96322C1 8.5797 1.33414 8.2688 1.74633 8.2688H5.18893C6.06279 8.2688 6.87257 7.84219 7.32216 7.14497L10.6936 1.91664C11.4211 0.788505 13.1346 0.681263 14.0179 1.7086C14.4342 2.19284 14.5684 2.83646 14.3768 3.43044L13.1051 7.37482C12.9614 7.82038 13.32 8.2688 13.82 8.2688H19.5109C21.1512 8.2688 22.3426 9.72015 21.9109 11.1926L19.5362 19.2942C19.2411 20.3014 18.258 21 17.1362 21Z" stroke="#BBBBBB" stroke-width="2" stroke-linecap="round"/>
<path id="Vector_2" d="M5.35376 21V8.26883" stroke="#BBBBBB" stroke-width="2" stroke-linecap="round" stroke-linejoin="round"/>
</g>
</svg>
