<svg width="24" height="24" viewBox="0 0 24 24" fill="none" xmlns="http://www.w3.org/2000/svg">
<g id="Shopping Bag Outlined">
<mask id="mask0_112_4238" style="mask-type:alpha" maskUnits="userSpaceOnUse" x="2" y="0" width="20" height="24">
<g id="Shape">
<path fill-rule="evenodd" clip-rule="evenodd" d="M8.66865 1.30393C9.56448 0.461183 10.764 0 12 0C13.236 0 14.4356 0.461183 15.3314 1.30393C16.2298 2.14912 16.75 3.31233 16.75 4.5426V11.3011C16.75 11.9914 16.1904 12.5511 15.5 12.5511C14.8097 12.5511 14.25 11.9914 14.25 11.3011V4.5426C14.25 4.02636 14.0327 3.51461 13.6184 3.12483C13.2015 2.73261 12.6206 2.5 12 2.5C11.3795 2.5 10.7986 2.73261 10.3816 3.12483C9.96731 3.51461 9.75002 4.02636 9.75002 4.5426V11.3011C9.75002 11.9914 9.19037 12.5511 8.50002 12.5511C7.80966 12.5511 7.25002 11.9914 7.25002 11.3011V4.5426C7.25002 3.31233 7.77023 2.14912 8.66865 1.30393Z" fill="#3FAAD8"/>
<path fill-rule="evenodd" clip-rule="evenodd" d="M2.87302 10.215C2.99483 8.51449 4.40989 7.19717 6.11471 7.19717H17.8852C19.59 7.19717 21.0051 8.5145 21.1269 10.215L21.8433 20.215C21.9781 22.0965 20.4879 23.6972 18.6016 23.6972H5.39836C3.51199 23.6972 2.02188 22.0965 2.15667 20.215L2.87302 10.215ZM6.11471 9.69717C5.72129 9.69717 5.39474 10.0012 5.36663 10.3936L4.65028 20.3936C4.61917 20.8278 4.96304 21.1972 5.39836 21.1972H18.6016C19.0369 21.1972 19.3808 20.8278 19.3497 20.3936L18.6333 10.3936C18.6052 10.0012 18.2786 9.69717 17.8852 9.69717H6.11471Z" fill="#3FAAD8"/>
</g>
</mask>
<g mask="url(#mask0_112_4238)">
<rect id="Fill" width="24" height="24" fill="#1F2024"/>
</g>
</g>
</svg>
